<?xml version="1.0" encoding="UTF-8" standalone="no"?>
<!-- Creator: CorelDRAW -->

<svg
   xml:space="preserve"
   width="78.677795mm"
   height="37.55584mm"
   version="1.1"
   shape-rendering="geometricPrecision"
   text-rendering="geometricPrecision"
   image-rendering="optimizeQuality"
   fill-rule="evenodd"
   clip-rule="evenodd"
   viewBox="0 0 7867.7795 3755.584"
   id="svg1124"
   sodipodi:docname="cpLogo.svg"
   xmlns:inkscape="http://www.inkscape.org/namespaces/inkscape"
   xmlns:sodipodi="http://sodipodi.sourceforge.net/DTD/sodipodi-0.dtd"
   xmlns="http://www.w3.org/2000/svg"
   xmlns:svg="http://www.w3.org/2000/svg"><sodipodi:namedview
   id="namedview1126"
   pagecolor="#ffffff"
   bordercolor="#000000"
   borderopacity="0.25"
   inkscape:showpageshadow="2"
   inkscape:pageopacity="0.0"
   inkscape:pagecheckerboard="0"
   inkscape:deskcolor="#d1d1d1"
   inkscape:document-units="mm"
   showgrid="false" />
 <defs
   id="defs596"><linearGradient
     id="id0"
     gradientUnits="userSpaceOnUse"
     x1="6286.9199"
     y1="13313.65"
     x2="14147.07"
     y2="13313.65">
    <stop
   offset="0"
   stop-opacity="1"
   stop-color="#C5C6C6"
   id="stop565" />
    <stop
   offset="0.6"
   stop-opacity="1"
   stop-color="#D1E2E2"
   id="stop567" />
    <stop
   offset="1"
   stop-opacity="1"
   stop-color="#DEFEFF"
   id="stop569" />
   </linearGradient><linearGradient
     id="id1"
     gradientUnits="userSpaceOnUse"
     x1="6286.9199"
     y1="13313.66"
     x2="14147.08"
     y2="13313.66">
    <stop
   offset="0"
   stop-opacity="1"
   stop-color="#7688A1"
   id="stop572" />
    <stop
   offset="0.6"
   stop-opacity="1"
   stop-color="#AAC3D0"
   id="stop574" />
    <stop
   offset="1"
   stop-opacity="1"
   stop-color="#DEFEFF"
   id="stop576" />
   </linearGradient><linearGradient
     id="id2"
     gradientUnits="userSpaceOnUse"
     x1="6286.9199"
     y1="13313.66"
     x2="14147.08"
     y2="13313.66">
    <stop
   offset="0"
   stop-opacity="1"
   stop-color="#D5D5D5"
   id="stop579" />
    <stop
   offset="0.6"
   stop-opacity="1"
   stop-color="#D9E9EA"
   id="stop581" />
    <stop
   offset="1"
   stop-opacity="1"
   stop-color="#DEFEFF"
   id="stop583" />
   </linearGradient><linearGradient
     id="id3"
     gradientUnits="userSpaceOnUse"
     x1="6286.9199"
     y1="13313.66"
     x2="14147.08"
     y2="13313.66">
    <stop
   offset="0"
   stop-opacity="1"
   stop-color="#7688A1"
   id="stop586" />
    <stop
   offset="0.6"
   stop-opacity="1"
   stop-color="#AAC3D0"
   id="stop588" />
    <stop
   offset="1"
   stop-opacity="1"
   stop-color="#DEFEFF"
   id="stop590" />
   </linearGradient><clipPath
     id="id4">
     <path
   d="m 12349.74,13291.23 c -9.21,-381.45 -1077.07,-825.99 -1854.32,-1033.84 -539.04,-192.85 -849.73,-107.02 -833.41,-341.94 393.4,-279.87 3257.17,518.39 3282.11,1306.1 0.94,338.53 -195.02,585.84 -936.22,687.74 494.16,212.56 686.06,323.34 770.24,814.64 741.37,-345.64 1385.01,-661.3 1368.62,-1390.79 -44.16,-1125.34 -1930.79,-1861.55 -3936.75,-1892.99 -771.26,-9.18 -1922.64,112.66 -2157.13,579.78 18.13,295.86 669.4,528.56 1071.62,714.02 -394.15,126.08 -964.73,162.79 -1073.37,583.4 -33.08,759.06 2637.73,960.69 2672.13,1325.34 -13.9,266.98 -3250.71,-323.28 -3311.28,-1292.14 42.12,-318.71 383.72,-468.49 1074.61,-655.71 -418.02,-123.42 -671.55,-374.1 -855.98,-749.94 -746.47,212.01 -1261.45,503.35 -1343.69,1346.47 110.64,1445.49 2779.98,1881.18 4302.25,1896.27 878.62,-11.98 1757.19,-229.09 1800.2,-630.21 -30.1,-294.77 -771.2,-531.67 -1185.36,-700.22 459.74,-83.52 1173.8,-230.09 1145.73,-565.98 z M 9660.8,13067.48 c 118.46,-47.09 344.27,31.95 433.39,62.22 l 504.82,160.74 c 225.01,66.43 164.63,150.91 111.5,187.8 -94.3,55.92 -209.61,71.64 -449.42,15.98 l -503.34,-168.2 c -218.54,-71.47 -215.98,-206.45 -96.95,-258.54 z"
   id="path593" />
    </clipPath></defs>
 <g
   id="Слой_x0020_1"
   inkscape:label="Слой 1"
   inkscape:groupmode="layer"
   transform="translate(-6283.0959,-11435.866)">
  <metadata
   id="CorelCorpID_0Corel-Layer" />
  <path
   fill="url(#id0)"
   stroke="#fefefe"
   stroke-width="7.62"
   stroke-miterlimit="22.9256"
   d="m 8486.58,12694.84 c -418.01,-123.43 -671.54,-374.1 -855.97,-749.94 -746.47,212.02 -1261.45,503.35 -1343.69,1346.48 110.64,1445.47 2779.97,1881.17 4302.26,1896.25 878.61,-11.97 1757.19,-229.08 1800.19,-630.2 -30.1,-294.76 -771.2,-531.68 -1185.36,-700.23 459.73,-83.51 1173.8,-230.08 1145.72,-565.98 -9.19,-381.45 -1077.06,-825.98 -1854.32,-1033.82 -539.02,-192.86 -849.72,-107.02 -833.39,-341.96 393.38,-279.87 3257.16,518.4 3282.11,1306.12 0.92,338.52 -195.03,585.83 -936.22,687.73 494.16,212.57 686.04,323.34 770.24,814.65 741.35,-345.65 1385,-661.32 1368.6,-1390.8 -44.16,-1125.33 -1930.78,-1861.55 -3936.73,-1892.98 -771.27,-9.2 -1922.66,112.64 -2157.14,579.77 18.13,295.86 669.4,528.57 1071.62,714.01 -394.15,126.08 -964.72,162.79 -1073.38,583.4 -33.08,759.07 2637.75,960.7 2672.14,1325.35 -13.89,266.98 -3250.72,-323.28 -3311.27,-1292.14 42.11,-318.71 383.71,-468.48 1074.59,-655.71 z m 1174.23,372.64 c 118.45,-47.1 344.25,31.95 433.38,62.21 l 504.82,160.75 c 225,66.43 164.64,150.91 111.51,187.81 -94.31,55.9 -209.63,71.64 -449.43,15.96 l -503.35,-168.19 c -218.53,-71.48 -215.97,-206.46 -96.93,-258.54 z"
   id="path599"
   style="fill:url(#id0)" />
  <path
   fill="url(#id1)"
   stroke="#2b2a29"
   stroke-width="7.62"
   stroke-miterlimit="22.9256"
   d="m 8486.59,12694.84 c -418.02,-123.42 -671.55,-374.1 -855.98,-749.94 -746.47,212.01 -1261.45,503.35 -1343.69,1346.47 110.64,1445.49 2779.98,1881.18 4302.25,1896.27 878.62,-11.98 1757.19,-229.09 1800.2,-630.21 -30.1,-294.77 -771.2,-531.67 -1185.36,-700.22 459.74,-83.52 1173.8,-230.09 1145.73,-565.98 -9.21,-381.45 -1077.07,-825.99 -1854.32,-1033.84 -539.04,-192.85 -849.73,-107.02 -833.41,-341.94 393.4,-279.87 3257.17,518.39 3282.11,1306.1 0.94,338.53 -195.02,585.84 -936.22,687.74 494.16,212.56 686.06,323.34 770.24,814.64 741.37,-345.64 1385.01,-661.3 1368.62,-1390.79 -44.16,-1125.34 -1930.79,-1861.55 -3936.75,-1892.99 -771.26,-9.18 -1922.64,112.66 -2157.13,579.78 18.13,295.86 669.4,528.56 1071.62,714.02 -394.15,126.08 -964.73,162.79 -1073.37,583.4 -33.08,759.06 2637.73,960.69 2672.13,1325.34 -13.9,266.98 -3250.71,-323.28 -3311.28,-1292.14 42.12,-318.71 383.72,-468.49 1074.61,-655.71 z m 1174.21,372.64 c 118.46,-47.09 344.27,31.95 433.39,62.22 l 504.82,160.74 c 225.01,66.43 164.63,150.91 111.5,187.8 -94.3,55.92 -209.61,71.64 -449.42,15.98 l -503.34,-168.2 c -218.54,-71.47 -215.98,-206.45 -96.95,-258.54 z"
   id="path601"
   style="fill:url(#id1)" />
  <path
   fill="url(#id2)"
   stroke="#2b2a29"
   stroke-width="7.62"
   stroke-miterlimit="22.9256"
   d="m 8486.59,12694.84 c -418.02,-123.42 -671.55,-374.1 -855.98,-749.94 -746.47,212.01 -1261.45,503.35 -1343.69,1346.47 110.64,1445.49 2779.98,1881.18 4302.25,1896.27 878.62,-11.98 1757.19,-229.09 1800.2,-630.21 -30.1,-294.77 -771.2,-531.67 -1185.36,-700.22 459.74,-83.52 1173.8,-230.09 1145.73,-565.98 -9.21,-381.45 -1077.07,-825.99 -1854.32,-1033.84 -539.04,-192.85 -849.73,-107.02 -833.41,-341.94 393.4,-279.87 3257.17,518.39 3282.11,1306.1 0.94,338.53 -195.02,585.84 -936.22,687.74 494.16,212.56 686.06,323.34 770.24,814.64 741.37,-345.64 1385.01,-661.3 1368.62,-1390.79 -44.16,-1125.34 -1930.79,-1861.55 -3936.75,-1892.99 -771.26,-9.18 -1922.64,112.66 -2157.13,579.78 18.13,295.86 669.4,528.56 1071.62,714.02 -394.15,126.08 -964.73,162.79 -1073.37,583.4 -33.08,759.06 2637.73,960.69 2672.13,1325.34 -13.9,266.98 -3250.71,-323.28 -3311.28,-1292.14 42.12,-318.71 383.72,-468.49 1074.61,-655.71 z m 1174.21,372.64 c 118.46,-47.09 344.27,31.95 433.39,62.22 l 504.82,160.74 c 225.01,66.43 164.63,150.91 111.5,187.8 -94.3,55.92 -209.61,71.64 -449.42,15.98 l -503.34,-168.2 c -218.54,-71.47 -215.98,-206.45 -96.95,-258.54 z"
   id="path603"
   style="fill:url(#id2)" />
  <path
   fill="url(#id3)"
   stroke="#2b2a29"
   stroke-width="7.62"
   stroke-miterlimit="22.9256"
   d="m 9662.01,11915.45 c 393.4,-279.87 3257.17,518.39 3282.11,1306.1 0.94,338.53 -195.02,585.84 -936.22,687.74 494.16,212.56 686.06,323.34 770.24,814.64 741.37,-345.64 1385.01,-661.3 1368.62,-1390.79 -44.16,-1125.34 -1930.79,-1861.55 -3936.75,-1892.99 -771.26,-9.18 -1922.64,112.66 -2157.13,579.78 18.13,295.86 669.4,528.56 1071.62,714.02 -394.15,126.08 -964.73,162.79 -1073.37,583.4 -33.08,759.06 2637.73,960.69 2672.13,1325.34 -13.9,266.98 -3250.71,-323.28 -3311.28,-1292.14 42.12,-318.71 383.72,-468.49 1074.61,-655.71 -418.02,-123.42 -671.55,-374.1 -855.98,-749.94 -746.47,212.01 -1261.45,503.35 -1343.69,1346.47 110.64,1445.49 2779.98,1881.18 4302.25,1896.27 878.62,-11.98 1757.19,-229.09 1800.2,-630.21 -30.1,-294.77 -771.2,-531.67 -1185.36,-700.22 459.74,-83.52 1173.8,-230.09 1145.73,-565.98 -9.21,-381.45 -1077.07,-825.99 -1854.32,-1033.84 -539.04,-192.85 -849.73,-107.02 -833.41,-341.94 z m -1.21,1152.03 c 118.46,-47.09 344.27,31.95 433.39,62.22 l 504.82,160.74 c 225.01,66.43 164.63,150.91 111.5,187.8 -94.3,55.92 -209.61,71.64 -449.42,15.98 l -503.34,-168.2 c -218.54,-71.47 -215.98,-206.45 -96.95,-258.54 z"
   id="path605"
   style="fill:url(#id3)" />
  <g
   id="g1121">
   <g
   clip-path="url(#id4)"
   id="g1118">
    <polygon
   fill="#e7f3f7"
   points="4660.42,13229.96 4661.77,13177.54 10610.01,13238.7 "
   id="polygon607" />
    <polygon
   id="_1"
   fill="#e6f3f7"
   points="4661.54,13186.27 4663.8,13142.6 10610.01,13238.7 " />
    <polygon
   id="_2"
   fill="#e6f2f6"
   points="4663.35,13151.33 4666.74,13107.68 10610.01,13238.7 " />
    <polygon
   id="_3"
   fill="#e5f1f6"
   points="4666.06,13116.41 4670.57,13072.77 10610.01,13238.7 " />
    <polygon
   id="_4"
   fill="#e4f1f6"
   points="4669.67,13081.5 4675.31,13037.89 10610.01,13238.7 " />
    <polygon
   id="_5"
   fill="#e3f0f5"
   points="4674.18,13046.62 4680.95,13003.05 10610.01,13238.7 " />
    <polygon
   id="_6"
   fill="#e3eff5"
   points="4679.59,13011.76 4687.49,12968.24 10610.01,13238.7 " />
    <polygon
   id="_7"
   fill="#e2eff5"
   points="4685.91,12976.94 4694.92,12933.46 10610.01,13238.7 " />
    <polygon
   id="_8"
   fill="#e2eef4"
   points="4693.12,12942.16 4703.26,12898.74 10610.01,13238.7 " />
    <polygon
   id="_9"
   fill="#e1edf4"
   points="4701.23,12907.42 4712.49,12864.07 10610.01,13238.7 " />
    <polygon
   id="_10"
   fill="#e0edf4"
   points="4710.24,12872.74 4722.62,12829.45 10610.01,13238.7 " />
    <polygon
   id="_11"
   fill="#dfecf4"
   points="4720.14,12838.11 4733.64,12794.9 10610.01,13238.7 " />
    <polygon
   id="_12"
   fill="#deebf4"
   points="4730.94,12803.54 4745.55,12760.41 10610.01,13238.7 " />
    <polygon
   id="_13"
   fill="#deebf4"
   points="4742.63,12769.04 4758.35,12726 10610.01,13238.7 " />
    <polygon
   id="_14"
   fill="#ddeaf3"
   points="4755.21,12734.61 4772.04,12691.66 10610.01,13238.7 " />
    <polygon
   id="_15"
   fill="#dce9f3"
   points="4768.67,12700.25 4786.62,12657.41 10610.01,13238.7 " />
    <polygon
   id="_16"
   fill="#dce9f3"
   points="4783.03,12665.98 4802.08,12623.24 10610.01,13238.7 " />
    <polygon
   id="_17"
   fill="#dbe8f2"
   points="4798.27,12631.79 4818.42,12589.17 10610.01,13238.7 " />
    <polygon
   id="_18"
   fill="#dae7f2"
   points="4814.39,12597.7 4835.64,12555.2 10610.01,13238.7 " />
    <polygon
   id="_19"
   fill="#dae7f2"
   points="4831.39,12563.7 4853.74,12521.33 10610.01,13238.7 " />
    <polygon
   id="_20"
   fill="#d9e6f1"
   points="4849.27,12529.8 4872.71,12487.57 10610.01,13238.7 " />
    <polygon
   id="_21"
   fill="#d8e5f1"
   points="4868.02,12496.02 4892.55,12453.92 10610.01,13238.7 " />
    <polygon
   id="_22"
   fill="#d7e5f1"
   points="4887.65,12462.34 4913.26,12420.4 10610.01,13238.7 " />
    <polygon
   id="_23"
   fill="#d6e4f0"
   points="4908.14,12428.79 4934.84,12386.99 10610.01,13238.7 " />
    <polygon
   id="_24"
   fill="#d6e3f0"
   points="4929.5,12395.35 4957.27,12353.72 10610.01,13238.7 " />
    <polygon
   id="_25"
   fill="#d5e3f0"
   points="4951.72,12362.05 4980.57,12320.58 10610.01,13238.7 " />
    <polygon
   id="_26"
   fill="#d4e2ef"
   points="4974.8,12328.88 5004.71,12287.58 10610.01,13238.7 " />
    <polygon
   id="_27"
   fill="#d4e1ef"
   points="4998.73,12295.84 5029.71,12254.73 10610.01,13238.7 " />
    <polygon
   id="_28"
   fill="#d3e0ef"
   points="5023.52,12262.95 5055.56,12222.02 10610.01,13238.7 " />
    <polygon
   id="_29"
   fill="#d2dfef"
   points="5049.15,12230.21 5082.25,12189.47 10610.01,13238.7 " />
    <polygon
   id="_30"
   fill="#d2dfee"
   points="5075.63,12197.62 5109.78,12157.08 10610.01,13238.7 " />
    <polygon
   id="_31"
   fill="#d1deee"
   points="5102.95,12165.18 5138.14,12124.85 10610.01,13238.7 " />
    <polygon
   id="_32"
   fill="#d0deee"
   points="5131.1,12132.91 5167.33,12092.79 10610.01,13238.7 " />
    <polygon
   id="_33"
   fill="#cfdded"
   points="5160.08,12100.81 5197.35,12060.9 10610.01,13238.7 " />
    <polygon
   id="_34"
   fill="#cedced"
   points="5189.9,12068.88 5228.19,12029.2 10610.01,13238.7 " />
    <polygon
   id="_35"
   fill="#cedced"
   points="5220.53,12037.13 5259.85,11997.67 10610.01,13238.7 " />
    <polygon
   id="_36"
   fill="#cddbed"
   points="5251.99,12005.56 5292.32,11966.34 10610.01,13238.7 " />
    <polygon
   id="_37"
   fill="#ccdaec"
   points="5284.25,11974.18 5325.6,11935.2 10610.01,13238.7 " />
    <polygon
   id="_38"
   fill="#ccdaec"
   points="5317.33,11942.99 5359.68,11904.25 10610.01,13238.7 " />
    <polygon
   id="_39"
   fill="#cbd9ec"
   points="5351.21,11912 5394.55,11873.51 10610.01,13238.7 " />
    <polygon
   id="_40"
   fill="#cad8eb"
   points="5385.88,11881.21 5430.22,11842.98 10610.01,13238.7 " />
    <polygon
   id="_41"
   fill="#cad8eb"
   points="5421.35,11850.62 5466.67,11812.65 10610.01,13238.7 " />
    <polygon
   id="_42"
   fill="#c9d7eb"
   points="5457.61,11820.25 5503.91,11782.55 10610.01,13238.7 " />
    <polygon
   id="_43"
   fill="#c8d6eb"
   points="5494.65,11790.09 5541.92,11752.66 10610.01,13238.7 " />
    <polygon
   id="_44"
   fill="#c7d5ea"
   points="5532.46,11760.15 5580.69,11723 10610.01,13238.7 " />
    <polygon
   id="_45"
   fill="#c6d5ea"
   points="5571.05,11730.43 5620.24,11693.58 10610.01,13238.7 " />
    <polygon
   id="_46"
   fill="#c6d4ea"
   points="5610.4,11700.95 5660.54,11664.38 10610.01,13238.7 " />
    <polygon
   id="_47"
   fill="#c5d4ea"
   points="5650.51,11671.69 5701.59,11635.43 10610.01,13238.7 " />
    <polygon
   id="_48"
   fill="#c4d3e9"
   points="5691.37,11642.68 5743.38,11606.71 10610.01,13238.7 " />
    <polygon
   id="_49"
   fill="#c4d2e9"
   points="5732.98,11613.91 5785.92,11578.25 10610.01,13238.7 " />
    <polygon
   id="_50"
   fill="#c3d1e9"
   points="5775.33,11585.38 5829.18,11550.04 10610.01,13238.7 " />
    <polygon
   id="_51"
   fill="#c2d0e8"
   points="5818.41,11557.1 5873.17,11522.08 10610.01,13238.7 " />
    <polygon
   id="_52"
   fill="#c2d0e8"
   points="5862.22,11529.08 5917.88,11494.38 10610.01,13238.7 " />
    <polygon
   id="_53"
   fill="#c1d0e8"
   points="5906.75,11501.32 5963.31,11466.95 10610.01,13238.7 " />
    <polygon
   id="_54"
   fill="#c0cfe7"
   points="5952,11473.83 6009.44,11439.79 10610.01,13238.7 " />
    <polygon
   id="_55"
   fill="#bfcee7"
   points="5997.95,11446.6 6056.26,11412.9 10610.01,13238.7 " />
    <polygon
   id="_56"
   fill="#becde7"
   points="6044.6,11419.64 6103.78,11386.29 10610.01,13238.7 " />
    <polygon
   id="_57"
   fill="#becde7"
   points="6091.94,11392.96 6151.98,11359.96 10610.01,13238.7 " />
    <polygon
   id="_58"
   fill="#bdcce6"
   points="6139.97,11366.56 6200.86,11333.91 10610.01,13238.7 " />
    <polygon
   id="_59"
   fill="#bccce6"
   points="6188.68,11340.44 6250.41,11308.16 10610.01,13238.7 " />
    <polygon
   id="_60"
   fill="#bbcbe6"
   points="6238.06,11314.61 6300.62,11282.69 10610.01,13238.7 " />
    <polygon
   id="_61"
   fill="#bbcae5"
   points="6288.11,11289.08 6351.48,11257.53 10610.01,13238.7 " />
    <polygon
   id="_62"
   fill="#bac9e5"
   points="6338.81,11263.84 6402.99,11232.66 10610.01,13238.7 " />
    <polygon
   id="_63"
   fill="#bac9e5"
   points="6390.15,11238.9 6455.14,11208.1 10610.01,13238.7 " />
    <polygon
   id="_64"
   fill="#b9c8e4"
   points="6442.14,11214.26 6507.92,11183.85 10610.01,13238.7 " />
    <polygon
   id="_65"
   fill="#b8c8e4"
   points="6494.76,11189.93 6561.32,11159.9 10610.01,13238.7 " />
    <polygon
   id="_66"
   fill="#b7c7e4"
   points="6548.01,11165.91 6615.34,11136.28 10610.01,13238.7 " />
    <polygon
   id="_67"
   fill="#b6c6e3"
   points="6601.87,11142.2 6669.96,11112.97 10610.01,13238.7 " />
    <polygon
   id="_68"
   fill="#b6c6e3"
   points="6656.34,11118.82 6725.18,11089.99 10610.01,13238.7 " />
    <polygon
   id="_69"
   fill="#b5c5e3"
   points="6711.41,11095.75 6780.99,11067.33 10610.01,13238.7 " />
    <polygon
   id="_70"
   fill="#b4c4e2"
   points="6767.07,11073.01 6837.38,11045 10610.01,13238.7 " />
    <polygon
   id="_71"
   fill="#b3c4e2"
   points="6823.32,11050.6 6894.34,11023.01 10610.01,13238.7 " />
    <polygon
   id="_72"
   fill="#b2c3e2"
   points="6880.14,11028.53 6951.87,11001.35 10610.01,13238.7 " />
    <polygon
   id="_73"
   fill="#b2c2e1"
   points="6937.52,11006.78 7009.95,10980.03 10610.01,13238.7 " />
    <polygon
   id="_74"
   fill="#b2c2e1"
   points="6995.47,10985.38 7068.58,10959.05 10610.01,13238.7 " />
    <polygon
   id="_75"
   fill="#b1c1e1"
   points="7053.96,10964.32 7127.75,10938.42 10610.01,13238.7 " />
    <polygon
   id="_76"
   fill="#b0c0e0"
   points="7112.99,10943.6 7187.45,10918.14 10610.01,13238.7 " />
    <polygon
   id="_77"
   fill="#afc0e0"
   points="7172.55,10923.23 7247.66,10898.21 10610.01,13238.7 " />
    <polygon
   id="_78"
   fill="#aebfe0"
   points="7232.64,10903.21 7308.39,10878.63 10610.01,13238.7 " />
    <polygon
   id="_79"
   fill="#aebee0"
   points="7293.24,10883.55 7369.61,10859.42 10610.01,13238.7 " />
    <polygon
   id="_80"
   fill="#adbee0"
   points="7354.34,10864.25 7431.33,10840.56 10610.01,13238.7 " />
    <polygon
   id="_81"
   fill="#acbddf"
   points="7415.93,10845.3 7493.53,10822.07 10610.01,13238.7 " />
    <polygon
   id="_82"
   fill="#abbcdf"
   points="7478.01,10826.72 7556.2,10803.95 10610.01,13238.7 " />
    <polygon
   id="_83"
   fill="#aabcdf"
   points="7540.56,10808.5 7619.34,10786.19 10610.01,13238.7 " />
    <polygon
   id="_84"
   fill="#a9bbde"
   points="7603.59,10790.66 7682.93,10768.81 10610.01,13238.7 " />
    <polygon
   id="_85"
   fill="#a9bade"
   points="7667.06,10773.18 7746.97,10751.8 10610.01,13238.7 " />
    <polygon
   id="_86"
   fill="#a8bade"
   points="7730.99,10756.08 7811.44,10735.18 10610.01,13238.7 " />
    <polygon
   id="_87"
   fill="#a8b9dd"
   points="7795.35,10739.36 7876.33,10718.93 10610.01,13238.7 " />
    <polygon
   id="_88"
   fill="#a7b8dd"
   points="7860.13,10723.01 7941.64,10703.06 10610.01,13238.7 " />
    <polygon
   id="_89"
   fill="#a6b8dd"
   points="7925.34,10707.05 8007.36,10687.58 10610.01,13238.7 " />
    <polygon
   id="_90"
   fill="#a6b7dc"
   points="7990.95,10691.47 8073.47,10672.48 10610.01,13238.7 " />
    <polygon
   id="_91"
   fill="#a5b6dc"
   points="8056.96,10676.28 8139.96,10657.77 10610.01,13238.7 " />
    <polygon
   id="_92"
   fill="#a4b6dc"
   points="8123.36,10661.47 8206.83,10643.46 10610.01,13238.7 " />
    <polygon
   id="_93"
   fill="#a3b5db"
   points="8190.14,10647.06 8274.06,10629.54 10610.01,13238.7 " />
    <polygon
   id="_94"
   fill="#a2b4db"
   points="8257.28,10633.04 8341.65,10616.02 10610.01,13238.7 " />
    <polygon
   id="_95"
   fill="#a1b4db"
   points="8324.78,10619.42 8409.59,10602.89 10610.01,13238.7 " />
    <polygon
   id="_96"
   fill="#a1b3da"
   points="8392.62,10606.2 8477.85,10590.16 10610.01,13238.7 " />
    <polygon
   id="_97"
   fill="#a0b2da"
   points="8460.81,10593.37 8546.44,10577.84 10610.01,13238.7 " />
    <polygon
   id="_98"
   fill="#9fb2da"
   points="8529.32,10580.94 8615.35,10565.92 10610.01,13238.7 " />
    <polygon
   id="_99"
   fill="#9eb1d9"
   points="8598.14,10568.92 8684.55,10554.4 10610.01,13238.7 " />
    <polygon
   id="_100"
   fill="#9db0d9"
   points="8667.27,10557.31 8754.05,10543.3 10610.01,13238.7 " />
    <polygon
   id="_101"
   fill="#9cafd8"
   points="8736.7,10546.1 8823.83,10532.6 10610.01,13238.7 " />
    <polygon
   id="_102"
   fill="#9cb0d9"
   points="8806.41,10535.3 8893.89,10522.31 10610.01,13238.7 " />
    <polygon
   id="_103"
   fill="#9bafd9"
   points="8876.39,10524.91 8964.2,10512.44 10610.01,13238.7 " />
    <polygon
   id="_104"
   fill="#9cafd8"
   points="8946.64,10514.93 9034.76,10502.98 10610.01,13238.7 " />
    <polygon
   id="_105"
   fill="#9baed8"
   points="9017.13,10505.37 9105.56,10493.93 10610.01,13238.7 " />
    <polygon
   id="_106"
   fill="#9baed8"
   points="9087.88,10496.22 9176.59,10485.3 10610.01,13238.7 " />
    <polygon
   id="_107"
   fill="#9aadd8"
   points="9158.85,10487.48 9247.84,10477.09 10610.01,13238.7 " />
    <polygon
   id="_108"
   fill="#9aadd7"
   points="9230.04,10479.17 9319.29,10469.3 10610.01,13238.7 " />
    <polygon
   id="_109"
   fill="#99add7"
   points="9301.44,10471.27 9390.94,10461.92 10610.01,13238.7 " />
    <polygon
   id="_110"
   fill="#99acd7"
   points="9373.04,10463.79 9462.78,10454.97 10610.01,13238.7 " />
    <polygon
   id="_111"
   fill="#98acd7"
   points="9444.83,10456.74 9534.78,10448.45 10610.01,13238.7 " />
    <polygon
   id="_112"
   fill="#97abd6"
   points="9516.79,10450.1 9606.96,10442.34 10610.01,13238.7 " />
    <polygon
   id="_113"
   fill="#97abd6"
   points="9588.92,10443.89 9679.28,10436.66 10610.01,13238.7 " />
    <polygon
   id="_114"
   fill="#96aad6"
   points="9661.21,10438.11 9751.75,10431.41 10610.01,13238.7 " />
    <polygon
   id="_115"
   fill="#96aad6"
   points="9733.64,10432.75 9824.34,10426.58 10610.01,13238.7 " />
    <polygon
   id="_116"
   fill="#95aad5"
   points="9806.2,10427.81 9897.06,10422.18 10610.01,13238.7 " />
    <polygon
   id="_117"
   fill="#95a9d5"
   points="9878.88,10423.3 9969.88,10418.2 10610.01,13238.7 " />
    <polygon
   id="_118"
   fill="#94a9d5"
   points="9951.68,10419.22 10042.8,10414.65 10610.01,13238.7 " />
    <polygon
   id="_119"
   fill="#94a8d5"
   points="10024.58,10415.57 10115.81,10411.54 10610.01,13238.7 " />
    <polygon
   id="_120"
   fill="#93a8d4"
   points="10097.56,10412.34 10188.89,10408.85 10610.01,13238.7 " />
    <polygon
   id="_121"
   fill="#93a8d4"
   points="10170.62,10409.55 10262.03,10406.59 10610.01,13238.7 " />
    <polygon
   id="_122"
   fill="#92a7d4"
   points="10243.75,10407.18 10335.23,10404.76 10610.01,13238.7 " />
    <polygon
   id="_123"
   fill="#91a7d4"
   points="10316.94,10405.24 10408.47,10403.36 10610.01,13238.7 " />
    <polygon
   id="_124"
   fill="#91a6d3"
   points="10390.16,10403.74 10481.74,10402.39 10610.01,13238.7 " />
    <polygon
   id="_125"
   fill="#90a6d3"
   points="10463.43,10402.66 10555.03,10401.85 10610.01,13238.7 " />
    <polygon
   id="_126"
   fill="#91a5d3"
   points="10536.71,10402.02 10628.33,10401.75 10610.01,13238.7 " />
    <polygon
   id="_127"
   fill="#90a5d3"
   points="10610.01,10401.8 10701.63,10402.07 10610.01,13238.7 " />
    <polygon
   id="_128"
   fill="#90a4d2"
   points="10683.3,10402.02 10774.91,10402.82 10610.01,13238.7 " />
    <polygon
   id="_129"
   fill="#8fa4d2"
   points="10756.59,10402.66 10848.16,10404.01 10610.01,13238.7 " />
    <polygon
   id="_130"
   fill="#8fa4d2"
   points="10829.85,10403.74 10921.38,10405.62 10610.01,13238.7 " />
    <polygon
   id="_131"
   fill="#8ea3d2"
   points="10903.08,10405.24 10994.56,10407.67 10610.01,13238.7 " />
    <polygon
   id="_132"
   fill="#8ea3d2"
   points="10976.26,10407.18 11067.67,10410.14 10610.01,13238.7 " />
    <polygon
   id="_133"
   fill="#8da2d1"
   points="11049.39,10409.55 11140.72,10413.04 10610.01,13238.7 " />
    <polygon
   id="_134"
   fill="#8ca2d1"
   points="11122.45,10412.34 11213.68,10416.37 10610.01,13238.7 " />
    <polygon
   id="_135"
   fill="#8ca1d1"
   points="11195.44,10415.57 11286.56,10420.13 10610.01,13238.7 " />
    <polygon
   id="_136"
   fill="#8ba1d1"
   points="11268.33,10419.22 11359.33,10424.32 10610.01,13238.7 " />
    <polygon
   id="_137"
   fill="#8ba1d1"
   points="11341.13,10423.3 11431.98,10428.94 10610.01,13238.7 " />
    <polygon
   id="_138"
   fill="#8aa0d1"
   points="11413.81,10427.81 11504.52,10433.98 10610.01,13238.7 " />
    <polygon
   id="_139"
   fill="#8aa0d0"
   points="11486.37,10432.75 11576.91,10439.45 10610.01,13238.7 " />
    <polygon
   id="_140"
   fill="#899fd0"
   points="11558.8,10438.11 11649.16,10445.34 10610.01,13238.7 " />
    <polygon
   id="_141"
   fill="#899fd0"
   points="11631.09,10443.89 11721.25,10451.66 10610.01,13238.7 " />
    <polygon
   id="_142"
   fill="#889fd0"
   points="11703.22,10450.1 11793.18,10458.4 10610.01,13238.7 " />
    <polygon
   id="_143"
   fill="#889fd0"
   points="11775.18,10456.74 11864.92,10465.56 10610.01,13238.7 " />
    <polygon
   id="_144"
   fill="#879ecf"
   points="11846.97,10463.79 11936.47,10473.14 10610.01,13238.7 " />
    <polygon
   id="_145"
   fill="#869dcf"
   points="11918.57,10471.27 12007.82,10481.14 10610.01,13238.7 " />
    <polygon
   id="_146"
   fill="#879dcf"
   points="11989.97,10479.17 12078.96,10489.56 10610.01,13238.7 " />
    <polygon
   id="_147"
   fill="#859ccf"
   points="12061.17,10487.48 12149.88,10498.4 10610.01,13238.7 " />
    <polygon
   id="_148"
   fill="#869cce"
   points="12132.14,10496.22 12220.56,10507.65 10610.01,13238.7 " />
    <polygon
   id="_149"
   fill="#859cce"
   points="12202.88,10505.37 12291,10517.32 10610.01,13238.7 " />
    <polygon
   id="_150"
   fill="#859cce"
   points="12273.38,10514.93 12361.19,10527.4 10610.01,13238.7 " />
    <polygon
   id="_151"
   fill="#849bcd"
   points="12343.62,10524.91 12431.1,10537.9 10610.01,13238.7 " />
    <polygon
   id="_152"
   fill="#849bcd"
   points="12413.61,10535.3 12500.74,10548.8 10610.01,13238.7 " />
    <polygon
   id="_153"
   fill="#839acd"
   points="12483.32,10546.1 12570.1,10560.11 10610.01,13238.7 " />
    <polygon
   id="_154"
   fill="#839acd"
   points="12552.74,10557.31 12639.15,10571.83 10610.01,13238.7 " />
    <polygon
   id="_155"
   fill="#8299cc"
   points="12621.87,10568.92 12707.9,10583.95 10610.01,13238.7 " />
    <polygon
   id="_156"
   fill="#8199cc"
   points="12690.7,10580.94 12776.33,10596.48 10610.01,13238.7 " />
    <polygon
   id="_157"
   fill="#8198cc"
   points="12759.21,10593.37 12844.43,10609.4 10610.01,13238.7 " />
    <polygon
   id="_158"
   fill="#8098cc"
   points="12827.39,10606.2 12912.2,10622.73 10610.01,13238.7 " />
    <polygon
   id="_159"
   fill="#8098cc"
   points="12895.23,10619.42 12979.61,10636.45 10610.01,13238.7 " />
    <polygon
   id="_160"
   fill="#7f97cb"
   points="12962.73,10633.04 13046.66,10650.57 10610.01,13238.7 " />
    <polygon
   id="_161"
   fill="#7f97cb"
   points="13029.88,10647.06 13113.35,10665.08 10610.01,13238.7 " />
    <polygon
   id="_162"
   fill="#7e96cb"
   points="13096.65,10661.47 13179.65,10679.98 10610.01,13238.7 " />
    <polygon
   id="_163"
   fill="#7e96cb"
   points="13163.05,10676.28 13245.56,10695.27 10610.01,13238.7 " />
    <polygon
   id="_164"
   fill="#7d95ca"
   points="13229.06,10691.47 13311.08,10710.94 10610.01,13238.7 " />
    <polygon
   id="_165"
   fill="#7d95ca"
   points="13294.67,10707.05 13376.18,10727 10610.01,13238.7 " />
    <polygon
   id="_166"
   fill="#7c94ca"
   points="13359.88,10723.01 13440.86,10743.44 10610.01,13238.7 " />
    <polygon
   id="_167"
   fill="#7b94ca"
   points="13424.67,10739.36 13505.12,10760.26 10610.01,13238.7 " />
    <polygon
   id="_168"
   fill="#7b94ca"
   points="13489.03,10756.08 13568.93,10777.46 10610.01,13238.7 " />
    <polygon
   id="_169"
   fill="#7a93c9"
   points="13552.95,10773.18 13632.3,10795.03 10610.01,13238.7 " />
    <polygon
   id="_170"
   fill="#7a93ca"
   points="13616.43,10790.66 13695.2,10812.97 10610.01,13238.7 " />
    <polygon
   id="_171"
   fill="#7992c9"
   points="13679.45,10808.5 13757.64,10831.27 10610.01,13238.7 " />
    <polygon
   id="_172"
   fill="#7992c9"
   points="13742,10826.72 13819.6,10849.95 10610.01,13238.7 " />
    <polygon
   id="_173"
   fill="#7891c8"
   points="13804.08,10845.3 13881.08,10868.98 10610.01,13238.7 " />
    <polygon
   id="_174"
   fill="#7891c8"
   points="13865.68,10864.25 13942.05,10888.38 10610.01,13238.7 " />
    <polygon
   id="_175"
   fill="#7790c8"
   points="13926.78,10883.55 14002.52,10908.13 10610.01,13238.7 " />
    <polygon
   id="_176"
   fill="#7790c8"
   points="13987.37,10903.21 14062.48,10928.24 10610.01,13238.7 " />
    <polygon
   id="_177"
   fill="#7790c7"
   points="14047.46,10923.23 14121.91,10948.69 10610.01,13238.7 " />
    <polygon
   id="_178"
   fill="#758fc7"
   points="14107.02,10943.6 14180.81,10969.5 10610.01,13238.7 " />
    <polygon
   id="_179"
   fill="#758fc7"
   points="14166.05,10964.32 14239.17,10990.64 10610.01,13238.7 " />
    <polygon
   id="_180"
   fill="#758fc7"
   points="14224.55,10985.38 14296.98,11012.13 10610.01,13238.7 " />
    <polygon
   id="_181"
   fill="#758fc7"
   points="14282.49,11006.78 14354.22,11033.96 10610.01,13238.7 " />
    <polygon
   id="_182"
   fill="#748ec6"
   points="14339.87,11028.53 14410.9,11056.12 10610.01,13238.7 " />
    <polygon
   id="_183"
   fill="#748ec6"
   points="14396.7,11050.6 14467,11078.62 10610.01,13238.7 " />
    <polygon
   id="_184"
   fill="#738dc6"
   points="14452.94,11073.01 14522.52,11101.44 10610.01,13238.7 " />
    <polygon
   id="_185"
   fill="#738dc6"
   points="14508.6,11095.75 14577.44,11124.59 10610.01,13238.7 " />
    <polygon
   id="_186"
   fill="#728cc5"
   points="14563.67,11118.82 14631.76,11148.05 10610.01,13238.7 " />
    <polygon
   id="_187"
   fill="#728cc5"
   points="14618.14,11142.2 14685.47,11171.84 10610.01,13238.7 " />
    <polygon
   id="_188"
   fill="#718cc5"
   points="14672,11165.91 14738.56,11195.93 10610.01,13238.7 " />
    <polygon
   id="_189"
   fill="#708bc5"
   points="14725.25,11189.93 14791.03,11220.34 10610.01,13238.7 " />
    <polygon
   id="_190"
   fill="#708bc5"
   points="14777.87,11214.26 14842.86,11245.06 10610.01,13238.7 " />
    <polygon
   id="_191"
   fill="#6f8ac4"
   points="14829.86,11238.9 14894.04,11270.07 10610.01,13238.7 " />
    <polygon
   id="_192"
   fill="#6f8ac4"
   points="14881.21,11263.84 14944.58,11295.39 10610.01,13238.7 " />
    <polygon
   id="_193"
   fill="#6e89c4"
   points="14931.91,11289.08 14994.46,11321 10610.01,13238.7 " />
    <polygon
   id="_194"
   fill="#6e89c4"
   points="14981.95,11314.61 15043.67,11346.9 10610.01,13238.7 " />
    <polygon
   id="_195"
   fill="#6d89c3"
   points="15031.33,11340.44 15092.22,11373.09 10610.01,13238.7 " />
    <polygon
   id="_196"
   fill="#6d89c3"
   points="15080.04,11366.56 15140.08,11399.56 10610.01,13238.7 " />
    <polygon
   id="_197"
   fill="#6c88c3"
   points="15128.07,11392.96 15187.25,11426.31 10610.01,13238.7 " />
    <polygon
   id="_198"
   fill="#6c88c3"
   points="15175.41,11419.64 15233.73,11453.34 10610.01,13238.7 " />
    <polygon
   id="_199"
   fill="#6b87c3"
   points="15222.06,11446.6 15279.5,11480.63 10610.01,13238.7 " />
    <polygon
   id="_200"
   fill="#6a87c2"
   points="15268.02,11473.83 15324.57,11508.2 10610.01,13238.7 " />
    <polygon
   id="_201"
   fill="#6a87c2"
   points="15313.26,11501.32 15368.92,11536.03 10610.01,13238.7 " />
    <polygon
   id="_202"
   fill="#6986c2"
   points="15357.79,11529.08 15412.55,11564.11 10610.01,13238.7 " />
    <polygon
   id="_203"
   fill="#6986c2"
   points="15401.6,11557.1 15455.46,11592.45 10610.01,13238.7 " />
    <polygon
   id="_204"
   fill="#6885c1"
   points="15444.68,11585.38 15497.62,11621.04 10610.01,13238.7 " />
    <polygon
   id="_205"
   fill="#6885c1"
   points="15487.03,11613.91 15539.04,11649.87 10610.01,13238.7 " />
    <polygon
   id="_206"
   fill="#6884c1"
   points="15528.64,11642.68 15579.72,11678.95 10610.01,13238.7 " />
    <polygon
   id="_207"
   fill="#6884c1"
   points="15569.5,11671.69 15619.64,11708.26 10610.01,13238.7 " />
    <polygon
   id="_208"
   fill="#6684c1"
   points="15609.61,11700.95 15658.8,11737.81 10610.01,13238.7 " />
    <polygon
   id="_209"
   fill="#6783c0"
   points="15648.96,11730.43 15697.2,11767.58 10610.01,13238.7 " />
    <polygon
   id="_210"
   fill="#6583c0"
   points="15687.55,11760.15 15734.82,11797.57 10610.01,13238.7 " />
    <polygon
   id="_211"
   fill="#6582c0"
   points="15725.37,11790.09 15771.66,11827.79 10610.01,13238.7 " />
    <polygon
   id="_212"
   fill="#6582c0"
   points="15762.4,11820.25 15807.73,11858.22 10610.01,13238.7 " />
    <polygon
   id="_213"
   fill="#6481bf"
   points="15798.66,11850.62 15843,11888.86 10610.01,13238.7 " />
    <polygon
   id="_214"
   fill="#6481bf"
   points="15834.13,11881.21 15877.48,11919.7 10610.01,13238.7 " />
    <polygon
   id="_215"
   fill="#6381bf"
   points="15868.81,11912 15911.15,11950.74 10610.01,13238.7 " />
    <polygon
   id="_216"
   fill="#6381bf"
   points="15902.68,11942.99 15944.03,11981.98 10610.01,13238.7 " />
    <polygon
   id="_217"
   fill="#6280bf"
   points="15935.76,11974.18 15976.09,12013.41 10610.01,13238.7 " />
    <polygon
   id="_218"
   fill="#6280be"
   points="15968.03,12005.56 16007.34,12045.03 10610.01,13238.7 " />
    <polygon
   id="_219"
   fill="#6180be"
   points="15999.48,12037.13 16037.77,12076.82 10610.01,13238.7 " />
    <polygon
   id="_220"
   fill="#617fbe"
   points="16030.11,12068.88 16067.38,12108.8 10610.01,13238.7 " />
    <polygon
   id="_221"
   fill="#607fbe"
   points="16059.93,12100.81 16096.16,12140.94 10610.01,13238.7 " />
    <polygon
   id="_222"
   fill="#5f7ebd"
   points="16088.91,12132.91 16124.11,12173.25 10610.01,13238.7 " />
    <polygon
   id="_223"
   fill="#5f7ebd"
   points="16117.07,12165.18 16151.21,12205.72 10610.01,13238.7 " />
    <polygon
   id="_224"
   fill="#5e7dbd"
   points="16144.38,12197.62 16177.48,12238.35 10610.01,13238.7 " />
    <polygon
   id="_225"
   fill="#5e7dbd"
   points="16170.86,12230.21 16202.9,12271.14 10610.01,13238.7 " />
    <polygon
   id="_226"
   fill="#5d7dbd"
   points="16196.5,12262.95 16227.48,12304.06 10610.01,13238.7 " />
    <polygon
   id="_227"
   fill="#5d7dbc"
   points="16221.28,12295.84 16251.2,12337.13 10610.01,13238.7 " />
    <polygon
   id="_228"
   fill="#5c7cbc"
   points="16245.22,12328.88 16274.07,12370.34 10610.01,13238.7 " />
    <polygon
   id="_229"
   fill="#5c7cbc"
   points="16268.3,12362.05 16296.07,12403.68 10610.01,13238.7 " />
    <polygon
   id="_230"
   fill="#5b7cbc"
   points="16290.52,12395.35 16317.21,12437.15 10610.01,13238.7 " />
    <polygon
   id="_231"
   fill="#5b7bbb"
   points="16311.87,12428.79 16337.49,12470.73 10610.01,13238.7 " />
    <polygon
   id="_232"
   fill="#5a7bbb"
   points="16332.37,12462.34 16356.9,12504.44 10610.01,13238.7 " />
    <polygon
   id="_233"
   fill="#597abb"
   points="16351.99,12496.02 16375.43,12538.25 10610.01,13238.7 " />
    <polygon
   id="_234"
   fill="#597abb"
   points="16370.74,12529.8 16393.09,12572.17 10610.01,13238.7 " />
    <polygon
   id="_235"
   fill="#587abb"
   points="16388.62,12563.7 16409.87,12606.2 10610.01,13238.7 " />
    <polygon
   id="_236"
   fill="#5879ba"
   points="16405.62,12597.7 16425.77,12640.31 10610.01,13238.7 " />
    <polygon
   id="_237"
   fill="#5779ba"
   points="16421.74,12631.79 16440.79,12674.52 10610.01,13238.7 " />
    <polygon
   id="_238"
   fill="#5778ba"
   points="16436.98,12665.98 16454.93,12708.82 10610.01,13238.7 " />
    <polygon
   id="_239"
   fill="#5678ba"
   points="16451.34,12700.25 16468.17,12743.2 10610.01,13238.7 " />
    <polygon
   id="_240"
   fill="#5778ba"
   points="16464.81,12734.61 16480.53,12777.65 10610.01,13238.7 " />
    <polygon
   id="_241"
   fill="#5577ba"
   points="16477.39,12769.04 16492,12812.17 10610.01,13238.7 " />
    <polygon
   id="_242"
   fill="#5677b9"
   points="16489.07,12803.54 16502.57,12846.75 10610.01,13238.7 " />
    <polygon
   id="_243"
   fill="#5477b9"
   points="16499.87,12838.11 16512.25,12881.4 10610.01,13238.7 " />
    <polygon
   id="_244"
   fill="#5476b9"
   points="16509.77,12872.74 16521.03,12916.1 10610.01,13238.7 " />
    <polygon
   id="_245"
   fill="#5476b9"
   points="16518.78,12907.42 16528.92,12950.84 10610.01,13238.7 " />
    <polygon
   id="_246"
   fill="#5276b8"
   points="16526.89,12942.16 16535.91,12985.64 10610.01,13238.7 " />
    <polygon
   id="_247"
   fill="#5375b8"
   points="16534.1,12976.94 16542,13020.47 10610.01,13238.7 " />
    <polygon
   id="_248"
   fill="#5175b8"
   points="16540.42,13011.76 16547.18,13055.33 10610.01,13238.7 " />
    <polygon
   id="_249"
   fill="#5274b8"
   points="16545.83,13046.62 16551.47,13090.22 10610.01,13238.7 " />
    <polygon
   id="_250"
   fill="#5074b7"
   points="16550.34,13081.5 16554.86,13125.14 10610.01,13238.7 " />
    <polygon
   id="_251"
   fill="#5174b7"
   points="16553.95,13116.41 16557.34,13160.07 10610.01,13238.7 " />
    <polygon
   id="_252"
   fill="#4f73b7"
   points="16556.66,13151.33 16558.92,13195.01 10610.01,13238.7 " />
    <polygon
   id="_253"
   fill="#5073b6"
   points="16558.47,13186.27 16559.6,13229.96 10610.01,13238.7 " />
    <polygon
   id="_254"
   fill="#4f73b6"
   points="16559.37,13221.22 16559.37,13264.91 10610.01,13238.7 " />
    <polygon
   id="_255"
   fill="#5073b6"
   points="16559.37,13256.17 16558.24,13299.86 10610.01,13238.7 " />
    <polygon
   id="_256"
   fill="#4f73b7"
   points="16558.47,13291.12 16556.21,13334.79 10610.01,13238.7 " />
    <polygon
   id="_257"
   fill="#5174b7"
   points="16556.66,13326.06 16553.28,13369.72 10610.01,13238.7 " />
    <polygon
   id="_258"
   fill="#5074b7"
   points="16553.95,13360.99 16549.44,13404.62 10610.01,13238.7 " />
    <polygon
   id="_259"
   fill="#5274b8"
   points="16550.34,13395.89 16544.7,13439.5 10610.01,13238.7 " />
    <polygon
   id="_260"
   fill="#5175b8"
   points="16545.83,13430.78 16539.06,13474.35 10610.01,13238.7 " />
    <polygon
   id="_261"
   fill="#5375b8"
   points="16540.42,13465.63 16532.53,13509.16 10610.01,13238.7 " />
    <polygon
   id="_262"
   fill="#5276b8"
   points="16534.1,13500.45 16525.09,13543.93 10610.01,13238.7 " />
    <polygon
   id="_263"
   fill="#5476b9"
   points="16526.89,13535.23 16516.75,13578.65 10610.01,13238.7 " />
    <polygon
   id="_264"
   fill="#5476b9"
   points="16518.78,13569.97 16507.52,13613.33 10610.01,13238.7 " />
    <polygon
   id="_265"
   fill="#5477b9"
   points="16509.77,13604.65 16497.4,13647.94 10610.01,13238.7 " />
    <polygon
   id="_266"
   fill="#5677b9"
   points="16499.87,13639.28 16486.37,13682.5 10610.01,13238.7 " />
    <polygon
   id="_267"
   fill="#5577ba"
   points="16489.07,13673.85 16474.46,13716.98 10610.01,13238.7 " />
    <polygon
   id="_268"
   fill="#5778ba"
   points="16477.39,13708.36 16461.66,13751.4 10610.01,13238.7 " />
    <polygon
   id="_269"
   fill="#5678ba"
   points="16464.81,13742.79 16447.97,13785.73 10610.01,13238.7 " />
    <polygon
   id="_270"
   fill="#5778ba"
   points="16451.34,13777.14 16433.39,13819.99 10610.01,13238.7 " />
    <polygon
   id="_271"
   fill="#5779ba"
   points="16436.98,13811.42 16417.93,13854.15 10610.01,13238.7 " />
    <polygon
   id="_272"
   fill="#5879ba"
   points="16421.74,13845.6 16401.59,13888.22 10610.01,13238.7 " />
    <polygon
   id="_273"
   fill="#587abb"
   points="16405.62,13879.7 16384.37,13922.19 10610.01,13238.7 " />
    <polygon
   id="_274"
   fill="#597abb"
   points="16388.62,13913.69 16366.27,13956.06 10610.01,13238.7 " />
    <polygon
   id="_275"
   fill="#597abb"
   points="16370.74,13947.59 16347.3,13989.82 10610.01,13238.7 " />
    <polygon
   id="_276"
   fill="#5a7bbb"
   points="16351.99,13981.38 16327.46,14023.47 10610.01,13238.7 " />
    <polygon
   id="_277"
   fill="#5b7bbb"
   points="16332.37,14015.05 16306.75,14057 10610.01,13238.7 " />
    <polygon
   id="_278"
   fill="#5b7cbc"
   points="16311.87,14048.61 16285.18,14090.4 10610.01,13238.7 " />
    <polygon
   id="_279"
   fill="#5c7cbc"
   points="16290.52,14082.04 16262.74,14123.67 10610.01,13238.7 " />
    <polygon
   id="_280"
   fill="#5c7cbc"
   points="16268.3,14115.35 16239.45,14156.81 10610.01,13238.7 " />
    <polygon
   id="_281"
   fill="#5d7dbc"
   points="16245.22,14148.52 16215.3,14189.81 10610.01,13238.7 " />
    <polygon
   id="_282"
   fill="#5d7dbd"
   points="16221.28,14181.55 16190.3,14222.67 10610.01,13238.7 " />
    <polygon
   id="_283"
   fill="#5e7dbd"
   points="16196.5,14214.44 16164.45,14255.37 10610.01,13238.7 " />
    <polygon
   id="_284"
   fill="#5e7dbd"
   points="16170.86,14247.19 16137.76,14287.93 10610.01,13238.7 " />
    <polygon
   id="_285"
   fill="#5f7ebd"
   points="16144.38,14279.78 16110.24,14320.32 10610.01,13238.7 " />
    <polygon
   id="_286"
   fill="#5f7ebd"
   points="16117.07,14312.21 16081.87,14352.55 10610.01,13238.7 " />
    <polygon
   id="_287"
   fill="#607fbe"
   points="16088.91,14344.48 16052.68,14384.61 10610.01,13238.7 " />
    <polygon
   id="_288"
   fill="#617fbe"
   points="16059.93,14376.58 16022.66,14416.49 10610.01,13238.7 " />
    <polygon
   id="_289"
   fill="#6180be"
   points="16030.11,14408.51 15991.82,14448.2 10610.01,13238.7 " />
    <polygon
   id="_290"
   fill="#6280be"
   points="15999.48,14440.26 15960.16,14479.72 10610.01,13238.7 " />
    <polygon
   id="_291"
   fill="#6280bf"
   points="15968.03,14471.83 15927.69,14511.06 10610.01,13238.7 " />
    <polygon
   id="_292"
   fill="#6381bf"
   points="15935.76,14503.21 15894.42,14542.2 10610.01,13238.7 " />
    <polygon
   id="_293"
   fill="#6381bf"
   points="15902.68,14534.4 15860.34,14573.14 10610.01,13238.7 " />
    <polygon
   id="_294"
   fill="#6481bf"
   points="15868.81,14565.39 15825.46,14603.88 10610.01,13238.7 " />
    <polygon
   id="_295"
   fill="#6481bf"
   points="15834.13,14596.18 15789.79,14634.42 10610.01,13238.7 " />
    <polygon
   id="_296"
   fill="#6582c0"
   points="15798.66,14626.77 15753.34,14664.74 10610.01,13238.7 " />
    <polygon
   id="_297"
   fill="#6582c0"
   points="15762.4,14657.15 15716.11,14694.84 10610.01,13238.7 " />
    <polygon
   id="_298"
   fill="#6583c0"
   points="15725.37,14687.3 15678.1,14724.73 10610.01,13238.7 " />
    <polygon
   id="_299"
   fill="#6783c0"
   points="15687.55,14717.24 15639.32,14754.39 10610.01,13238.7 " />
    <polygon
   id="_300"
   fill="#6684c1"
   points="15648.96,14746.96 15599.78,14783.82 10610.01,13238.7 " />
    <polygon
   id="_301"
   fill="#6884c1"
   points="15609.61,14776.45 15559.48,14813.01 10610.01,13238.7 " />
    <polygon
   id="_302"
   fill="#6884c1"
   points="15569.5,14805.7 15518.43,14841.97 10610.01,13238.7 " />
    <polygon
   id="_303"
   fill="#6885c1"
   points="15528.64,14834.71 15476.63,14870.68 10610.01,13238.7 " />
    <polygon
   id="_304"
   fill="#6885c1"
   points="15487.03,14863.49 15434.1,14899.15 10610.01,13238.7 " />
    <polygon
   id="_305"
   fill="#6986c2"
   points="15444.68,14892.01 15390.83,14927.36 10610.01,13238.7 " />
    <polygon
   id="_306"
   fill="#6986c2"
   points="15401.6,14920.29 15346.84,14955.31 10610.01,13238.7 " />
    <polygon
   id="_307"
   fill="#6a87c2"
   points="15357.79,14948.31 15302.13,14983.01 10610.01,13238.7 " />
    <polygon
   id="_308"
   fill="#6a87c2"
   points="15313.26,14976.07 15256.7,15010.44 10610.01,13238.7 " />
    <polygon
   id="_309"
   fill="#6b87c3"
   points="15268.02,15003.57 15210.58,15037.6 10610.01,13238.7 " />
    <polygon
   id="_310"
   fill="#6c88c3"
   points="15222.06,15030.8 15163.75,15064.49 10610.01,13238.7 " />
    <polygon
   id="_311"
   fill="#6c88c3"
   points="15175.41,15057.75 15116.23,15091.1 10610.01,13238.7 " />
    <polygon
   id="_312"
   fill="#6d89c3"
   points="15128.07,15084.43 15068.03,15117.43 10610.01,13238.7 " />
    <polygon
   id="_313"
   fill="#6d89c3"
   points="15080.04,15110.83 15019.15,15143.48 10610.01,13238.7 " />
    <polygon
   id="_314"
   fill="#6e89c4"
   points="15031.33,15136.95 14969.6,15169.24 10610.01,13238.7 " />
    <polygon
   id="_315"
   fill="#6e89c4"
   points="14981.95,15162.78 14919.39,15194.7 10610.01,13238.7 " />
    <polygon
   id="_316"
   fill="#6f8ac4"
   points="14931.91,15188.32 14868.53,15219.87 10610.01,13238.7 " />
    <polygon
   id="_317"
   fill="#6f8ac4"
   points="14881.21,15213.56 14817.02,15244.73 10610.01,13238.7 " />
    <polygon
   id="_318"
   fill="#708bc5"
   points="14829.86,15238.5 14764.87,15269.29 10610.01,13238.7 " />
    <polygon
   id="_319"
   fill="#708bc5"
   points="14777.87,15263.14 14712.09,15293.55 10610.01,13238.7 " />
    <polygon
   id="_320"
   fill="#718cc5"
   points="14725.25,15287.47 14658.69,15317.49 10610.01,13238.7 " />
    <polygon
   id="_321"
   fill="#728cc5"
   points="14672,15311.48 14604.68,15341.12 10610.01,13238.7 " />
    <polygon
   id="_322"
   fill="#728cc5"
   points="14618.14,15335.19 14550.05,15364.42 10610.01,13238.7 " />
    <polygon
   id="_323"
   fill="#738dc6"
   points="14563.67,15358.57 14494.83,15387.41 10610.01,13238.7 " />
    <polygon
   id="_324"
   fill="#738dc6"
   points="14508.6,15381.64 14439.02,15410.06 10610.01,13238.7 " />
    <polygon
   id="_325"
   fill="#748ec6"
   points="14452.94,15404.38 14382.63,15432.39 10610.01,13238.7 " />
    <polygon
   id="_326"
   fill="#748ec6"
   points="14396.7,15426.79 14325.67,15454.39 10610.01,13238.7 " />
    <polygon
   id="_327"
   fill="#758fc7"
   points="14339.87,15448.87 14268.14,15476.05 10610.01,13238.7 " />
    <polygon
   id="_328"
   fill="#758fc7"
   points="14282.49,15470.61 14210.06,15497.37 10610.01,13238.7 " />
    <polygon
   id="_329"
   fill="#758fc7"
   points="14224.55,15492.02 14151.43,15518.34 10610.01,13238.7 " />
    <polygon
   id="_330"
   fill="#758fc7"
   points="14166.05,15513.08 14092.26,15538.97 10610.01,13238.7 " />
    <polygon
   id="_331"
   fill="#7790c7"
   points="14107.02,15533.79 14032.57,15559.26 10610.01,13238.7 " />
    <polygon
   id="_332"
   fill="#7790c8"
   points="14047.46,15554.16 13972.35,15579.18 10610.01,13238.7 " />
    <polygon
   id="_333"
   fill="#7790c8"
   points="13987.37,15574.18 13911.63,15598.76 10610.01,13238.7 " />
    <polygon
   id="_334"
   fill="#7891c8"
   points="13926.78,15593.84 13850.4,15617.97 10610.01,13238.7 " />
    <polygon
   id="_335"
   fill="#7891c8"
   points="13865.68,15613.15 13788.68,15636.83 10610.01,13238.7 " />
    <polygon
   id="_336"
   fill="#7992c9"
   points="13804.08,15632.09 13726.48,15655.32 10610.01,13238.7 " />
    <polygon
   id="_337"
   fill="#7992c9"
   points="13742,15650.67 13663.81,15673.44 10610.01,13238.7 " />
    <polygon
   id="_338"
   fill="#7a93ca"
   points="13679.45,15668.89 13600.67,15691.2 10610.01,13238.7 " />
    <polygon
   id="_339"
   fill="#7a93c9"
   points="13616.43,15686.74 13537.08,15708.58 10610.01,13238.7 " />
    <polygon
   id="_340"
   fill="#7b94ca"
   points="13552.95,15704.21 13473.04,15725.59 10610.01,13238.7 " />
    <polygon
   id="_341"
   fill="#7b94ca"
   points="13489.03,15721.31 13408.57,15742.22 10610.01,13238.7 " />
    <polygon
   id="_342"
   fill="#7c94ca"
   points="13424.67,15738.04 13343.68,15758.47 10610.01,13238.7 " />
    <polygon
   id="_343"
   fill="#7d95ca"
   points="13359.88,15754.38 13278.37,15774.34 10610.01,13238.7 " />
    <polygon
   id="_344"
   fill="#7d95ca"
   points="13294.67,15770.34 13212.66,15789.82 10610.01,13238.7 " />
    <polygon
   id="_345"
   fill="#7e96cb"
   points="13229.06,15785.92 13146.55,15804.91 10610.01,13238.7 " />
    <polygon
   id="_346"
   fill="#7e96cb"
   points="13163.05,15801.12 13080.05,15819.62 10610.01,13238.7 " />
    <polygon
   id="_347"
   fill="#7f97cb"
   points="13096.65,15815.92 13013.18,15833.93 10610.01,13238.7 " />
    <polygon
   id="_348"
   fill="#7f97cb"
   points="13029.88,15830.33 12945.95,15847.85 10610.01,13238.7 " />
    <polygon
   id="_349"
   fill="#8098cc"
   points="12962.73,15844.35 12878.36,15861.38 10610.01,13238.7 " />
    <polygon
   id="_350"
   fill="#8098cc"
   points="12895.23,15857.97 12810.43,15874.5 10610.01,13238.7 " />
    <polygon
   id="_351"
   fill="#8198cc"
   points="12827.39,15871.2 12742.16,15887.23 10610.01,13238.7 " />
    <polygon
   id="_352"
   fill="#8199cc"
   points="12759.21,15884.02 12673.57,15899.55 10610.01,13238.7 " />
    <polygon
   id="_353"
   fill="#8299cc"
   points="12690.7,15896.45 12604.66,15911.48 10610.01,13238.7 " />
    <polygon
   id="_354"
   fill="#839acd"
   points="12621.87,15908.47 12535.46,15922.99 10610.01,13238.7 " />
    <polygon
   id="_355"
   fill="#839acd"
   points="12552.74,15920.09 12465.96,15934.1 10610.01,13238.7 " />
    <polygon
   id="_356"
   fill="#849bcd"
   points="12483.32,15931.29 12396.18,15944.79 10610.01,13238.7 " />
    <polygon
   id="_357"
   fill="#849bcd"
   points="12413.61,15942.09 12326.13,15955.08 10610.01,13238.7 " />
    <polygon
   id="_358"
   fill="#859cce"
   points="12343.62,15952.48 12255.81,15964.96 10610.01,13238.7 " />
    <polygon
   id="_359"
   fill="#859cce"
   points="12273.38,15962.46 12185.25,15974.42 10610.01,13238.7 " />
    <polygon
   id="_360"
   fill="#869cce"
   points="12202.88,15972.03 12114.45,15983.46 10610.01,13238.7 " />
    <polygon
   id="_361"
   fill="#859ccf"
   points="12132.14,15981.18 12043.42,15992.09 10610.01,13238.7 " />
    <polygon
   id="_362"
   fill="#879dcf"
   points="12061.17,15989.91 11972.17,16000.31 10610.01,13238.7 " />
    <polygon
   id="_363"
   fill="#869dcf"
   points="11989.97,15998.23 11900.72,16008.1 10610.01,13238.7 " />
    <polygon
   id="_364"
   fill="#879ecf"
   points="11918.57,16006.12 11829.07,16015.47 10610.01,13238.7 " />
    <polygon
   id="_365"
   fill="#889fd0"
   points="11846.97,16013.6 11757.24,16022.42 10610.01,13238.7 " />
    <polygon
   id="_366"
   fill="#889fd0"
   points="11775.18,16020.66 11685.23,16028.95 10610.01,13238.7 " />
    <polygon
   id="_367"
   fill="#899fd0"
   points="11703.22,16027.29 11613.06,16035.05 10610.01,13238.7 " />
    <polygon
   id="_368"
   fill="#899fd0"
   points="11631.09,16033.5 11540.73,16040.73 10610.01,13238.7 " />
    <polygon
   id="_369"
   fill="#8aa0d0"
   points="11558.8,16039.29 11468.27,16045.99 10610.01,13238.7 " />
    <polygon
   id="_370"
   fill="#8aa0d1"
   points="11486.37,16044.65 11395.67,16050.82 10610.01,13238.7 " />
    <polygon
   id="_371"
   fill="#8ba1d1"
   points="11413.81,16049.58 11322.96,16055.22 10610.01,13238.7 " />
    <polygon
   id="_372"
   fill="#8ba1d1"
   points="11341.13,16054.09 11250.13,16059.19 10610.01,13238.7 " />
    <polygon
   id="_373"
   fill="#8ca1d1"
   points="11268.33,16058.17 11177.21,16062.74 10610.01,13238.7 " />
    <polygon
   id="_374"
   fill="#8ca2d1"
   points="11195.44,16061.83 11104.21,16065.86 10610.01,13238.7 " />
    <polygon
   id="_375"
   fill="#8da2d1"
   points="11122.45,16065.05 11031.12,16068.55 10610.01,13238.7 " />
    <polygon
   id="_376"
   fill="#8ea3d2"
   points="11049.39,16067.85 10957.98,16070.8 10610.01,13238.7 " />
    <polygon
   id="_377"
   fill="#8ea3d2"
   points="10976.26,16070.21 10884.78,16072.63 10610.01,13238.7 " />
    <polygon
   id="_378"
   fill="#8fa4d2"
   points="10903.08,16072.15 10811.54,16074.03 10610.01,13238.7 " />
    <polygon
   id="_379"
   fill="#8fa4d2"
   points="10829.85,16073.66 10738.27,16075 10610.01,13238.7 " />
    <polygon
   id="_380"
   fill="#90a4d2"
   points="10756.59,16074.73 10664.98,16075.54 10610.01,13238.7 " />
    <polygon
   id="_381"
   fill="#90a5d3"
   points="10683.3,16075.38 10591.68,16075.65 10610.01,13238.7 " />
    <polygon
   id="_382"
   fill="#91a5d3"
   points="10610.01,16075.59 10518.39,16075.32 10610.01,13238.7 " />
    <polygon
   id="_383"
   fill="#90a6d3"
   points="10536.71,16075.38 10445.1,16074.57 10610.01,13238.7 " />
    <polygon
   id="_384"
   fill="#91a6d3"
   points="10463.43,16074.73 10371.85,16073.39 10610.01,13238.7 " />
    <polygon
   id="_385"
   fill="#91a7d4"
   points="10390.16,16073.66 10298.63,16071.77 10610.01,13238.7 " />
    <polygon
   id="_386"
   fill="#92a7d4"
   points="10316.94,16072.15 10225.45,16069.73 10610.01,13238.7 " />
    <polygon
   id="_387"
   fill="#93a8d4"
   points="10243.75,16070.21 10152.34,16067.25 10610.01,13238.7 " />
    <polygon
   id="_388"
   fill="#93a8d4"
   points="10170.62,16067.85 10079.29,16064.35 10610.01,13238.7 " />
    <polygon
   id="_389"
   fill="#94a8d5"
   points="10097.56,16065.05 10006.33,16061.02 10610.01,13238.7 " />
    <polygon
   id="_390"
   fill="#94a9d5"
   points="10024.58,16061.83 9933.46,16057.26 10610.01,13238.7 " />
    <polygon
   id="_391"
   fill="#95a9d5"
   points="9951.68,16058.17 9860.69,16053.07 10610.01,13238.7 " />
    <polygon
   id="_392"
   fill="#95aad5"
   points="9878.88,16054.09 9788.03,16048.46 10610.01,13238.7 " />
    <polygon
   id="_393"
   fill="#96aad6"
   points="9806.2,16049.58 9715.5,16043.41 10610.01,13238.7 " />
    <polygon
   id="_394"
   fill="#96aad6"
   points="9733.64,16044.65 9643.1,16037.95 10610.01,13238.7 " />
    <polygon
   id="_395"
   fill="#97abd6"
   points="9661.21,16039.29 9570.85,16032.05 10610.01,13238.7 " />
    <polygon
   id="_396"
   fill="#97abd6"
   points="9588.92,16033.5 9498.76,16025.74 10610.01,13238.7 " />
    <polygon
   id="_397"
   fill="#98acd7"
   points="9516.79,16027.29 9426.84,16019 10610.01,13238.7 " />
    <polygon
   id="_398"
   fill="#99acd7"
   points="9444.83,16020.66 9355.09,16011.84 10610.01,13238.7 " />
    <polygon
   id="_399"
   fill="#99add7"
   points="9373.04,16013.6 9283.54,16004.25 10610.01,13238.7 " />
    <polygon
   id="_400"
   fill="#9aadd7"
   points="9301.44,16006.12 9212.19,15996.25 10610.01,13238.7 " />
    <polygon
   id="_401"
   fill="#9aadd8"
   points="9230.04,15998.23 9141.05,15987.83 10610.01,13238.7 " />
    <polygon
   id="_402"
   fill="#9baed8"
   points="9158.85,15989.91 9070.13,15978.99 10610.01,13238.7 " />
    <polygon
   id="_403"
   fill="#9baed8"
   points="9087.88,15981.18 8999.45,15969.74 10610.01,13238.7 " />
    <polygon
   id="_404"
   fill="#9cafd8"
   points="9017.13,15972.03 8929.01,15960.07 10610.01,13238.7 " />
    <polygon
   id="_405"
   fill="#9bafd9"
   points="8946.64,15962.46 8858.83,15949.99 10610.01,13238.7 " />
    <polygon
   id="_406"
   fill="#9cb0d9"
   points="8876.39,15952.48 8788.91,15939.5 10610.01,13238.7 " />
    <polygon
   id="_407"
   fill="#9cafd8"
   points="8806.41,15942.09 8719.27,15928.59 10610.01,13238.7 " />
    <polygon
   id="_408"
   fill="#9db0d9"
   points="8736.7,15931.29 8649.91,15917.28 10610.01,13238.7 " />
    <polygon
   id="_409"
   fill="#9eb1d9"
   points="8667.27,15920.09 8580.86,15905.57 10610.01,13238.7 " />
    <polygon
   id="_410"
   fill="#9fb2da"
   points="8598.14,15908.47 8512.11,15893.44 10610.01,13238.7 " />
    <polygon
   id="_411"
   fill="#a0b2da"
   points="8529.32,15896.45 8443.68,15880.92 10610.01,13238.7 " />
    <polygon
   id="_412"
   fill="#a1b3da"
   points="8460.81,15884.02 8375.58,15867.99 10610.01,13238.7 " />
    <polygon
   id="_413"
   fill="#a1b4db"
   points="8392.62,15871.2 8307.82,15854.67 10610.01,13238.7 " />
    <polygon
   id="_414"
   fill="#a2b4db"
   points="8324.78,15857.97 8240.4,15840.94 10610.01,13238.7 " />
    <polygon
   id="_415"
   fill="#a3b5db"
   points="8257.28,15844.35 8173.35,15826.83 10610.01,13238.7 " />
    <polygon
   id="_416"
   fill="#a4b6dc"
   points="8190.14,15830.33 8106.67,15812.32 10610.01,13238.7 " />
    <polygon
   id="_417"
   fill="#a5b6dc"
   points="8123.36,15815.92 8040.36,15797.41 10610.01,13238.7 " />
    <polygon
   id="_418"
   fill="#a6b7dc"
   points="8056.96,15801.12 7974.45,15782.13 10610.01,13238.7 " />
    <polygon
   id="_419"
   fill="#a6b8dd"
   points="7990.95,15785.92 7908.94,15766.45 10610.01,13238.7 " />
    <polygon
   id="_420"
   fill="#a7b8dd"
   points="7925.34,15770.34 7843.83,15750.39 10610.01,13238.7 " />
    <polygon
   id="_421"
   fill="#a8b9dd"
   points="7860.13,15754.38 7779.15,15733.95 10610.01,13238.7 " />
    <polygon
   id="_422"
   fill="#a8bade"
   points="7795.35,15738.04 7714.89,15717.13 10610.01,13238.7 " />
    <polygon
   id="_423"
   fill="#a9bade"
   points="7730.99,15721.31 7651.08,15699.94 10610.01,13238.7 " />
    <polygon
   id="_424"
   fill="#a9bbde"
   points="7667.06,15704.21 7587.72,15682.37 10610.01,13238.7 " />
    <polygon
   id="_425"
   fill="#aabcdf"
   points="7603.59,15686.74 7524.81,15664.43 10610.01,13238.7 " />
    <polygon
   id="_426"
   fill="#abbcdf"
   points="7540.56,15668.89 7462.37,15646.12 10610.01,13238.7 " />
    <polygon
   id="_427"
   fill="#acbddf"
   points="7478.01,15650.67 7400.41,15627.45 10610.01,13238.7 " />
    <polygon
   id="_428"
   fill="#adbee0"
   points="7415.93,15632.09 7338.94,15608.41 10610.01,13238.7 " />
    <polygon
   id="_429"
   fill="#aebee0"
   points="7354.34,15613.15 7277.96,15589.02 10610.01,13238.7 " />
    <polygon
   id="_430"
   fill="#aebfe0"
   points="7293.24,15593.84 7217.49,15569.26 10610.01,13238.7 " />
    <polygon
   id="_431"
   fill="#afc0e0"
   points="7232.64,15574.18 7157.53,15549.16 10610.01,13238.7 " />
    <polygon
   id="_432"
   fill="#b0c0e0"
   points="7172.55,15554.16 7098.1,15528.7 10610.01,13238.7 " />
    <polygon
   id="_433"
   fill="#b1c1e1"
   points="7112.99,15533.79 7039.2,15507.9 10610.01,13238.7 " />
    <polygon
   id="_434"
   fill="#b2c2e1"
   points="7053.96,15513.08 6980.84,15486.75 10610.01,13238.7 " />
    <polygon
   id="_435"
   fill="#b2c2e1"
   points="6995.47,15492.02 6923.04,15465.26 10610.01,13238.7 " />
    <polygon
   id="_436"
   fill="#b2c3e2"
   points="6937.52,15470.61 6865.79,15443.43 10610.01,13238.7 " />
    <polygon
   id="_437"
   fill="#b3c4e2"
   points="6880.14,15448.87 6809.11,15421.27 10610.01,13238.7 " />
    <polygon
   id="_438"
   fill="#b4c4e2"
   points="6823.32,15426.79 6753.01,15398.78 10610.01,13238.7 " />
    <polygon
   id="_439"
   fill="#b5c5e3"
   points="6767.07,15404.38 6697.49,15375.95 10610.01,13238.7 " />
    <polygon
   id="_440"
   fill="#b6c6e3"
   points="6711.41,15381.64 6642.57,15352.81 10610.01,13238.7 " />
    <polygon
   id="_441"
   fill="#b6c6e3"
   points="6656.34,15358.57 6588.25,15329.34 10610.01,13238.7 " />
    <polygon
   id="_442"
   fill="#b7c7e4"
   points="6601.87,15335.19 6534.54,15305.56 10610.01,13238.7 " />
    <polygon
   id="_443"
   fill="#b8c8e4"
   points="6548.01,15311.48 6481.45,15281.46 10610.01,13238.7 " />
    <polygon
   id="_444"
   fill="#b9c8e4"
   points="6494.76,15287.47 6428.99,15257.05 10610.01,13238.7 " />
    <polygon
   id="_445"
   fill="#bac9e5"
   points="6442.14,15263.14 6377.16,15232.34 10610.01,13238.7 " />
    <polygon
   id="_446"
   fill="#bac9e5"
   points="6390.15,15238.5 6325.97,15207.32 10610.01,13238.7 " />
    <polygon
   id="_447"
   fill="#bbcae5"
   points="6338.81,15213.56 6275.43,15182.01 10610.01,13238.7 " />
    <polygon
   id="_448"
   fill="#bbcbe6"
   points="6288.11,15188.32 6225.55,15156.4 10610.01,13238.7 " />
    <polygon
   id="_449"
   fill="#bccce6"
   points="6238.06,15162.78 6176.34,15130.49 10610.01,13238.7 " />
    <polygon
   id="_450"
   fill="#bdcce6"
   points="6188.68,15136.95 6127.8,15104.3 10610.01,13238.7 " />
    <polygon
   id="_451"
   fill="#becde7"
   points="6139.97,15110.83 6079.94,15077.83 10610.01,13238.7 " />
    <polygon
   id="_452"
   fill="#becde7"
   points="6091.94,15084.43 6032.76,15051.08 10610.01,13238.7 " />
    <polygon
   id="_453"
   fill="#bfcee7"
   points="6044.6,15057.75 5986.28,15024.06 10610.01,13238.7 " />
    <polygon
   id="_454"
   fill="#c0cfe7"
   points="5997.95,15030.8 5940.51,14996.76 10610.01,13238.7 " />
    <polygon
   id="_455"
   fill="#c1d0e8"
   points="5952,15003.57 5895.44,14969.2 10610.01,13238.7 " />
    <polygon
   id="_456"
   fill="#c2d0e8"
   points="5906.75,14976.07 5851.09,14941.37 10610.01,13238.7 " />
    <polygon
   id="_457"
   fill="#c2d0e8"
   points="5862.22,14948.31 5807.46,14913.28 10610.01,13238.7 " />
    <polygon
   id="_458"
   fill="#c3d1e9"
   points="5818.41,14920.29 5764.56,14884.94 10610.01,13238.7 " />
    <polygon
   id="_459"
   fill="#c4d2e9"
   points="5775.33,14892.01 5722.39,14856.36 10610.01,13238.7 " />
    <polygon
   id="_460"
   fill="#c4d3e9"
   points="5732.98,14863.49 5680.97,14827.52 10610.01,13238.7 " />
    <polygon
   id="_461"
   fill="#c5d4ea"
   points="5691.37,14834.71 5640.29,14798.44 10610.01,13238.7 " />
    <polygon
   id="_462"
   fill="#c6d4ea"
   points="5650.51,14805.7 5600.37,14769.13 10610.01,13238.7 " />
    <polygon
   id="_463"
   fill="#c6d5ea"
   points="5610.4,14776.45 5561.21,14739.59 10610.01,13238.7 " />
    <polygon
   id="_464"
   fill="#c7d5ea"
   points="5571.05,14746.96 5522.81,14709.82 10610.01,13238.7 " />
    <polygon
   id="_465"
   fill="#c8d6eb"
   points="5532.46,14717.24 5485.19,14679.82 10610.01,13238.7 " />
    <polygon
   id="_466"
   fill="#c9d7eb"
   points="5494.65,14687.3 5448.35,14649.6 10610.01,13238.7 " />
    <polygon
   id="_467"
   fill="#cad8eb"
   points="5457.61,14657.15 5412.29,14619.18 10610.01,13238.7 " />
    <polygon
   id="_468"
   fill="#cad8eb"
   points="5421.35,14626.77 5377.01,14588.54 10610.01,13238.7 " />
    <polygon
   id="_469"
   fill="#cbd9ec"
   points="5385.88,14596.18 5342.54,14557.69 10610.01,13238.7 " />
    <polygon
   id="_470"
   fill="#ccdaec"
   points="5351.21,14565.39 5308.86,14526.65 10610.01,13238.7 " />
    <polygon
   id="_471"
   fill="#ccdaec"
   points="5317.33,14534.4 5275.98,14495.41 10610.01,13238.7 " />
    <polygon
   id="_472"
   fill="#cddbed"
   points="5284.25,14503.21 5243.92,14463.98 10610.01,13238.7 " />
    <polygon
   id="_473"
   fill="#cedced"
   points="5251.99,14471.83 5212.67,14432.37 10610.01,13238.7 " />
    <polygon
   id="_474"
   fill="#cedced"
   points="5220.53,14440.26 5182.24,14400.57 10610.01,13238.7 " />
    <polygon
   id="_475"
   fill="#cfdded"
   points="5189.9,14408.51 5152.63,14368.6 10610.01,13238.7 " />
    <polygon
   id="_476"
   fill="#d0deee"
   points="5160.08,14376.58 5123.85,14336.45 10610.01,13238.7 " />
    <polygon
   id="_477"
   fill="#d1deee"
   points="5131.1,14344.48 5095.91,14304.14 10610.01,13238.7 " />
    <polygon
   id="_478"
   fill="#d2dfee"
   points="5102.95,14312.21 5068.8,14271.67 10610.01,13238.7 " />
    <polygon
   id="_479"
   fill="#d2dfef"
   points="5075.63,14279.78 5042.53,14239.04 10610.01,13238.7 " />
    <polygon
   id="_480"
   fill="#d3e0ef"
   points="5049.15,14247.19 5017.11,14206.26 10610.01,13238.7 " />
    <polygon
   id="_481"
   fill="#d4e1ef"
   points="5023.52,14214.44 4992.53,14173.33 10610.01,13238.7 " />
    <polygon
   id="_482"
   fill="#d4e2ef"
   points="4998.73,14181.55 4968.81,14140.26 10610.01,13238.7 " />
    <polygon
   id="_483"
   fill="#d5e3f0"
   points="4974.8,14148.52 4945.95,14107.05 10610.01,13238.7 " />
    <polygon
   id="_484"
   fill="#d6e3f0"
   points="4951.72,14115.35 4923.94,14073.71 10610.01,13238.7 " />
    <polygon
   id="_485"
   fill="#d6e4f0"
   points="4929.5,14082.04 4902.8,14040.25 10610.01,13238.7 " />
    <polygon
   id="_486"
   fill="#d7e5f1"
   points="4908.14,14048.61 4882.52,14006.66 10610.01,13238.7 " />
    <polygon
   id="_487"
   fill="#d8e5f1"
   points="4887.65,14015.05 4863.12,13972.96 10610.01,13238.7 " />
    <polygon
   id="_488"
   fill="#d9e6f1"
   points="4868.02,13981.38 4844.58,13939.14 10610.01,13238.7 " />
    <polygon
   id="_489"
   fill="#dae7f2"
   points="4849.27,13947.59 4826.92,13905.22 10610.01,13238.7 " />
    <polygon
   id="_490"
   fill="#dae7f2"
   points="4831.39,13913.69 4810.14,13871.2 10610.01,13238.7 " />
    <polygon
   id="_491"
   fill="#dbe8f2"
   points="4814.39,13879.7 4794.24,13837.08 10610.01,13238.7 " />
    <polygon
   id="_492"
   fill="#dce9f3"
   points="4798.27,13845.6 4779.22,13802.87 10610.01,13238.7 " />
    <polygon
   id="_493"
   fill="#dce9f3"
   points="4783.03,13811.42 4765.09,13768.57 10610.01,13238.7 " />
    <polygon
   id="_494"
   fill="#ddeaf3"
   points="4768.67,13777.14 4751.84,13734.2 10610.01,13238.7 " />
    <polygon
   id="_495"
   fill="#deebf4"
   points="4755.21,13742.79 4739.48,13699.75 10610.01,13238.7 " />
    <polygon
   id="_496"
   fill="#deebf4"
   points="4742.63,13708.36 4728.02,13665.23 10610.01,13238.7 " />
    <polygon
   id="_497"
   fill="#dfecf4"
   points="4730.94,13673.85 4717.44,13630.64 10610.01,13238.7 " />
    <polygon
   id="_498"
   fill="#e0edf4"
   points="4720.14,13639.28 4707.76,13596 10610.01,13238.7 " />
    <polygon
   id="_499"
   fill="#e1edf4"
   points="4710.24,13604.65 4698.98,13561.3 10610.01,13238.7 " />
    <polygon
   id="_500"
   fill="#e2eef4"
   points="4701.23,13569.97 4691.09,13526.55 10610.01,13238.7 " />
    <polygon
   id="_501"
   fill="#e2eff5"
   points="4693.12,13535.23 4684.1,13491.76 10610.01,13238.7 " />
    <polygon
   id="_502"
   fill="#e3eff5"
   points="4685.91,13500.45 4678.02,13456.93 10610.01,13238.7 " />
    <polygon
   id="_503"
   fill="#e3f0f5"
   points="4679.59,13465.63 4672.83,13422.06 10610.01,13238.7 " />
    <polygon
   id="_504"
   fill="#e4f1f6"
   points="4674.18,13430.78 4668.54,13387.17 10610.01,13238.7 " />
    <polygon
   id="_505"
   fill="#e5f1f6"
   points="4669.67,13395.89 4665.16,13352.26 10610.01,13238.7 " />
    <polygon
   id="_506"
   fill="#e6f2f6"
   points="4666.06,13360.99 4662.67,13317.33 10610.01,13238.7 " />
    <polygon
   id="_507"
   fill="#e6f3f7"
   points="4663.35,13326.06 4661.09,13282.38 10610.01,13238.7 " />
    <polygon
   id="_508"
   fill="#e7f3f7"
   points="4661.54,13291.12 4660.42,13247.43 10610.01,13238.7 " />
    <polygon
   id="_509"
   fill="#defeff"
   points="4660.64,13256.17 4660.64,13221.22 10610.01,13238.7 " />
   </g>
   <path
   id="_510"
   fill="none"
   stroke="#2b2a29"
   stroke-width="7.62"
   stroke-miterlimit="22.9256"
   d="m 12349.74,13291.23 c -9.21,-381.45 -1077.07,-825.99 -1854.32,-1033.84 -539.04,-192.85 -849.73,-107.02 -833.41,-341.94 393.4,-279.87 3257.17,518.39 3282.11,1306.1 0.94,338.53 -195.02,585.84 -936.22,687.74 494.16,212.56 686.06,323.34 770.24,814.64 741.37,-345.64 1385.01,-661.3 1368.62,-1390.79 -44.16,-1125.34 -1930.79,-1861.55 -3936.75,-1892.99 -771.26,-9.18 -1922.64,112.66 -2157.13,579.78 18.13,295.86 669.4,528.56 1071.62,714.02 -394.15,126.08 -964.73,162.79 -1073.37,583.4 -33.08,759.06 2637.73,960.69 2672.13,1325.34 -13.9,266.98 -3250.71,-323.28 -3311.28,-1292.14 42.12,-318.71 383.72,-468.49 1074.61,-655.71 -418.02,-123.42 -671.55,-374.1 -855.98,-749.94 -746.47,212.01 -1261.45,503.35 -1343.69,1346.47 110.64,1445.49 2779.98,1881.18 4302.25,1896.27 878.62,-11.98 1757.19,-229.09 1800.2,-630.21 -30.1,-294.77 -771.2,-531.67 -1185.36,-700.22 459.74,-83.52 1173.8,-230.09 1145.73,-565.98 z M 9660.8,13067.48 c 118.46,-47.09 344.27,31.95 433.39,62.22 l 504.82,160.74 c 225.01,66.43 164.63,150.91 111.5,187.8 -94.3,55.92 -209.61,71.64 -449.42,15.98 l -503.34,-168.2 c -218.54,-71.47 -215.98,-206.45 -96.95,-258.54 z" />
  </g>
 </g>
</svg>
